<svg width="1920" height="1920" viewBox="0 0 1920 1920" fill="none" xmlns="http://www.w3.org/2000/svg">
<path fill-rule="evenodd" clip-rule="evenodd" d="M1920 0H0V1920H1920V1752.92H1763.85L1676.72 1602.42L1763.85 1451.93H1920V1440.61H1763.85L1676.72 1290.12L1763.85 1139.62H1920V1128.31H1763.85L1676.72 977.81L1763.85 827.315H1920V0ZM1665.4 983.468L1752.53 1133.96L1665.4 1284.46H1491.15L1404.02 1133.96L1491.15 983.468H1665.4ZM1665.4 1295.77L1752.53 1446.27L1665.4 1596.76H1491.15L1404.02 1446.27L1491.15 1295.77H1665.4ZM1392.7 1451.93L1479.83 1602.42L1392.7 1752.92H1218.44L1131.32 1602.42L1218.44 1451.93H1392.7ZM1665.4 1608.08L1752.53 1758.57L1665.4 1909.07H1491.15L1404.02 1758.57L1491.15 1608.08H1665.4Z" fill="#222225"/>
</svg>
